<svg width="40" height="40" viewBox="0 0 40 40" xmlns="http://www.w3.org/2000/svg">
  <path d="M20 4C12.268 4 6 10.268 6 18C6 25.732 12.268 32 20 32C27.732 32 34 25.732 34 18C34 10.268 27.732 4 20 4ZM20 6C26.627 6 32 11.373 32 18C32 24.627 26.627 30 20 30C13.373 30 8 24.627 8 18C8 11.373 13.373 6 20 6Z" fill="#c5a880" fill-opacity="0.2"/>
  <circle cx="20" cy="18" r="2" fill="#c5a880" fill-opacity="0.3"/>
  <line x1="20" y1="8" x2="20" y2="16" stroke="#c5a880" stroke-width="0.5" stroke-opacity="0.3"/>
  <line x1="20" y1="20" x2="20" y2="28" stroke="#c5a880" stroke-width="0.5" stroke-opacity="0.3"/>
  <line x1="10" y1="18" x2="18" y2="18" stroke="#c5a880" stroke-width="0.5" stroke-opacity="0.3"/>
  <line x1="22" y1="18" x2="30" y2="18" stroke="#c5a880" stroke-width="0.5" stroke-opacity="0.3"/>
</svg> 